<mxfile host="app.diagrams.net" modified="2023-06-22T10:22:32.722Z" agent="Mozilla/5.0 (Windows NT 10.0; Win64; x64; rv:109.0) Gecko/20100101 Firefox/114.0" etag="UzpIYLpG538O7AeeSHqQ" version="21.5.0" type="device">
  <diagram name="Page-1" id="j1BODu4dc6s-8Mdujirj">
    <mxGraphModel dx="913" dy="526" grid="1" gridSize="10" guides="1" tooltips="1" connect="1" arrows="1" fold="1" page="1" pageScale="1" pageWidth="850" pageHeight="1100" math="0" shadow="0">
      <root>
        <mxCell id="0" />
        <mxCell id="1" parent="0" />
        <mxCell id="GmhpjrC-8yOo2otP6V3l-2" value="" style="rounded=0;whiteSpace=wrap;html=1;" parent="1" vertex="1">
          <mxGeometry x="80" y="40" width="640" height="840" as="geometry" />
        </mxCell>
        <mxCell id="GmhpjrC-8yOo2otP6V3l-54" style="edgeStyle=orthogonalEdgeStyle;rounded=0;orthogonalLoop=1;jettySize=auto;html=1;" parent="1" source="GmhpjrC-8yOo2otP6V3l-3" target="GmhpjrC-8yOo2otP6V3l-42" edge="1">
          <mxGeometry relative="1" as="geometry">
            <Array as="points">
              <mxPoint x="370" y="220" />
              <mxPoint x="250" y="220" />
            </Array>
          </mxGeometry>
        </mxCell>
        <mxCell id="GmhpjrC-8yOo2otP6V3l-55" style="edgeStyle=orthogonalEdgeStyle;rounded=0;orthogonalLoop=1;jettySize=auto;html=1;entryX=0.5;entryY=0;entryDx=0;entryDy=0;" parent="1" source="GmhpjrC-8yOo2otP6V3l-3" target="GmhpjrC-8yOo2otP6V3l-26" edge="1">
          <mxGeometry relative="1" as="geometry">
            <Array as="points">
              <mxPoint x="430" y="220" />
              <mxPoint x="550" y="220" />
            </Array>
          </mxGeometry>
        </mxCell>
        <mxCell id="GmhpjrC-8yOo2otP6V3l-3" value="Vault" style="rounded=0;whiteSpace=wrap;html=1;" parent="1" vertex="1">
          <mxGeometry x="340" y="120" width="120" height="60" as="geometry" />
        </mxCell>
        <mxCell id="GmhpjrC-8yOo2otP6V3l-66" style="edgeStyle=orthogonalEdgeStyle;rounded=0;orthogonalLoop=1;jettySize=auto;html=1;" parent="1" source="GmhpjrC-8yOo2otP6V3l-4" target="GmhpjrC-8yOo2otP6V3l-61" edge="1">
          <mxGeometry relative="1" as="geometry">
            <Array as="points">
              <mxPoint x="370" y="640" />
              <mxPoint x="260" y="640" />
            </Array>
          </mxGeometry>
        </mxCell>
        <mxCell id="GmhpjrC-8yOo2otP6V3l-67" style="edgeStyle=orthogonalEdgeStyle;rounded=0;orthogonalLoop=1;jettySize=auto;html=1;entryX=0.5;entryY=0;entryDx=0;entryDy=0;" parent="1" source="GmhpjrC-8yOo2otP6V3l-4" target="GmhpjrC-8yOo2otP6V3l-60" edge="1">
          <mxGeometry relative="1" as="geometry">
            <Array as="points">
              <mxPoint x="430" y="640" />
              <mxPoint x="540" y="640" />
            </Array>
          </mxGeometry>
        </mxCell>
        <mxCell id="GmhpjrC-8yOo2otP6V3l-4" value="cert-manager" style="rounded=0;whiteSpace=wrap;html=1;" parent="1" vertex="1">
          <mxGeometry x="340" y="550" width="120" height="60" as="geometry" />
        </mxCell>
        <mxCell id="GmhpjrC-8yOo2otP6V3l-5" value="microservice 1" style="rounded=0;whiteSpace=wrap;html=1;" parent="1" vertex="1">
          <mxGeometry x="130" y="790" width="120" height="60" as="geometry" />
        </mxCell>
        <mxCell id="UxKG776Q_cQlhPCToLZQ-4" style="edgeStyle=orthogonalEdgeStyle;rounded=0;orthogonalLoop=1;jettySize=auto;html=1;entryX=0.75;entryY=0;entryDx=0;entryDy=0;startArrow=classic;startFill=1;" edge="1" parent="1" source="GmhpjrC-8yOo2otP6V3l-6" target="UxKG776Q_cQlhPCToLZQ-1">
          <mxGeometry relative="1" as="geometry">
            <Array as="points">
              <mxPoint x="330" y="900" />
              <mxPoint x="290" y="900" />
            </Array>
          </mxGeometry>
        </mxCell>
        <mxCell id="GmhpjrC-8yOo2otP6V3l-6" value="microservice 2" style="rounded=0;whiteSpace=wrap;html=1;" parent="1" vertex="1">
          <mxGeometry x="270" y="790" width="120" height="60" as="geometry" />
        </mxCell>
        <mxCell id="GmhpjrC-8yOo2otP6V3l-7" value="microservice 3" style="rounded=0;whiteSpace=wrap;html=1;" parent="1" vertex="1">
          <mxGeometry x="410" y="790" width="120" height="60" as="geometry" />
        </mxCell>
        <mxCell id="UxKG776Q_cQlhPCToLZQ-5" style="edgeStyle=orthogonalEdgeStyle;rounded=0;orthogonalLoop=1;jettySize=auto;html=1;startArrow=classic;startFill=1;" edge="1" parent="1" source="GmhpjrC-8yOo2otP6V3l-8" target="GmhpjrC-8yOo2otP6V3l-22">
          <mxGeometry relative="1" as="geometry">
            <Array as="points">
              <mxPoint x="610" y="950" />
            </Array>
          </mxGeometry>
        </mxCell>
        <mxCell id="GmhpjrC-8yOo2otP6V3l-8" value="microservice 4" style="rounded=0;whiteSpace=wrap;html=1;" parent="1" vertex="1">
          <mxGeometry x="550" y="790" width="120" height="60" as="geometry" />
        </mxCell>
        <mxCell id="GmhpjrC-8yOo2otP6V3l-14" style="edgeStyle=orthogonalEdgeStyle;rounded=0;orthogonalLoop=1;jettySize=auto;html=1;entryX=1;entryY=0.5;entryDx=0;entryDy=0;" parent="1" source="GmhpjrC-8yOo2otP6V3l-11" target="GmhpjrC-8yOo2otP6V3l-13" edge="1">
          <mxGeometry relative="1" as="geometry" />
        </mxCell>
        <mxCell id="GmhpjrC-8yOo2otP6V3l-11" value="DigiCert (Public Authority)" style="rounded=0;whiteSpace=wrap;html=1;" parent="1" vertex="1">
          <mxGeometry x="960" y="120" width="120" height="60" as="geometry" />
        </mxCell>
        <mxCell id="GmhpjrC-8yOo2otP6V3l-15" style="edgeStyle=orthogonalEdgeStyle;rounded=0;orthogonalLoop=1;jettySize=auto;html=1;" parent="1" source="GmhpjrC-8yOo2otP6V3l-13" target="GmhpjrC-8yOo2otP6V3l-3" edge="1">
          <mxGeometry relative="1" as="geometry" />
        </mxCell>
        <mxCell id="GmhpjrC-8yOo2otP6V3l-13" value="Public&lt;br&gt;&lt;div&gt;Root Certificate&lt;br&gt;&lt;/div&gt;" style="rounded=0;whiteSpace=wrap;html=1;" parent="1" vertex="1">
          <mxGeometry x="760" y="120" width="120" height="60" as="geometry" />
        </mxCell>
        <mxCell id="GmhpjrC-8yOo2otP6V3l-21" value="Kubernetes" style="text;html=1;strokeColor=none;fillColor=none;align=center;verticalAlign=middle;whiteSpace=wrap;rounded=0;" parent="1" vertex="1">
          <mxGeometry x="80" y="40" width="80" height="30" as="geometry" />
        </mxCell>
        <mxCell id="UxKG776Q_cQlhPCToLZQ-2" style="edgeStyle=orthogonalEdgeStyle;rounded=0;orthogonalLoop=1;jettySize=auto;html=1;startArrow=classic;startFill=1;" edge="1" parent="1" source="GmhpjrC-8yOo2otP6V3l-22" target="GmhpjrC-8yOo2otP6V3l-7">
          <mxGeometry relative="1" as="geometry" />
        </mxCell>
        <mxCell id="GmhpjrC-8yOo2otP6V3l-22" value="user" style="shape=umlActor;verticalLabelPosition=bottom;verticalAlign=top;html=1;outlineConnect=0;" parent="1" vertex="1">
          <mxGeometry x="535" y="920" width="30" height="60" as="geometry" />
        </mxCell>
        <mxCell id="GmhpjrC-8yOo2otP6V3l-33" style="edgeStyle=orthogonalEdgeStyle;rounded=0;orthogonalLoop=1;jettySize=auto;html=1;" parent="1" source="GmhpjrC-8yOo2otP6V3l-26" target="GmhpjrC-8yOo2otP6V3l-27" edge="1">
          <mxGeometry relative="1" as="geometry" />
        </mxCell>
        <mxCell id="GmhpjrC-8yOo2otP6V3l-26" value="&lt;div&gt;Public &lt;br&gt;&lt;/div&gt;&lt;div&gt;Intermediate Certificate&lt;/div&gt;" style="rounded=0;whiteSpace=wrap;html=1;" parent="1" vertex="1">
          <mxGeometry x="490" y="360" width="120" height="60" as="geometry" />
        </mxCell>
        <mxCell id="GmhpjrC-8yOo2otP6V3l-57" style="edgeStyle=orthogonalEdgeStyle;rounded=0;orthogonalLoop=1;jettySize=auto;html=1;entryX=1;entryY=0.5;entryDx=0;entryDy=0;" parent="1" source="GmhpjrC-8yOo2otP6V3l-27" target="GmhpjrC-8yOo2otP6V3l-4" edge="1">
          <mxGeometry relative="1" as="geometry">
            <Array as="points">
              <mxPoint x="550" y="580" />
            </Array>
          </mxGeometry>
        </mxCell>
        <mxCell id="GmhpjrC-8yOo2otP6V3l-27" value="&lt;div&gt;Public &lt;br&gt;&lt;/div&gt;&lt;div&gt;Issuer Certificate&lt;/div&gt;" style="rounded=0;whiteSpace=wrap;html=1;" parent="1" vertex="1">
          <mxGeometry x="490" y="460" width="120" height="60" as="geometry" />
        </mxCell>
        <mxCell id="GmhpjrC-8yOo2otP6V3l-56" style="edgeStyle=orthogonalEdgeStyle;rounded=0;orthogonalLoop=1;jettySize=auto;html=1;entryX=0;entryY=0.5;entryDx=0;entryDy=0;" parent="1" source="GmhpjrC-8yOo2otP6V3l-40" target="GmhpjrC-8yOo2otP6V3l-4" edge="1">
          <mxGeometry relative="1" as="geometry">
            <Array as="points">
              <mxPoint x="250" y="580" />
            </Array>
          </mxGeometry>
        </mxCell>
        <mxCell id="GmhpjrC-8yOo2otP6V3l-40" value="&lt;div&gt;Internal &lt;br&gt;&lt;/div&gt;&lt;div&gt;Issuer Certificate&lt;/div&gt;" style="rounded=0;whiteSpace=wrap;html=1;" parent="1" vertex="1">
          <mxGeometry x="190" y="460" width="120" height="60" as="geometry" />
        </mxCell>
        <mxCell id="GmhpjrC-8yOo2otP6V3l-45" style="edgeStyle=orthogonalEdgeStyle;rounded=0;orthogonalLoop=1;jettySize=auto;html=1;" parent="1" source="GmhpjrC-8yOo2otP6V3l-41" target="GmhpjrC-8yOo2otP6V3l-40" edge="1">
          <mxGeometry relative="1" as="geometry" />
        </mxCell>
        <mxCell id="GmhpjrC-8yOo2otP6V3l-41" value="&lt;div&gt;Internal &lt;br&gt;&lt;/div&gt;&lt;div&gt;Intermediate Certificate&lt;br&gt;&lt;/div&gt;" style="rounded=0;whiteSpace=wrap;html=1;" parent="1" vertex="1">
          <mxGeometry x="190" y="360" width="120" height="60" as="geometry" />
        </mxCell>
        <mxCell id="GmhpjrC-8yOo2otP6V3l-44" style="edgeStyle=orthogonalEdgeStyle;rounded=0;orthogonalLoop=1;jettySize=auto;html=1;" parent="1" source="GmhpjrC-8yOo2otP6V3l-42" target="GmhpjrC-8yOo2otP6V3l-41" edge="1">
          <mxGeometry relative="1" as="geometry" />
        </mxCell>
        <mxCell id="GmhpjrC-8yOo2otP6V3l-42" value="Internal &lt;br&gt;Root Certificate" style="rounded=0;whiteSpace=wrap;html=1;" parent="1" vertex="1">
          <mxGeometry x="190" y="260" width="120" height="60" as="geometry" />
        </mxCell>
        <mxCell id="GmhpjrC-8yOo2otP6V3l-64" style="edgeStyle=orthogonalEdgeStyle;rounded=0;orthogonalLoop=1;jettySize=auto;html=1;entryX=0.5;entryY=0;entryDx=0;entryDy=0;" parent="1" source="GmhpjrC-8yOo2otP6V3l-60" target="GmhpjrC-8yOo2otP6V3l-7" edge="1">
          <mxGeometry relative="1" as="geometry">
            <Array as="points">
              <mxPoint x="510" y="760" />
              <mxPoint x="470" y="760" />
            </Array>
          </mxGeometry>
        </mxCell>
        <mxCell id="GmhpjrC-8yOo2otP6V3l-65" style="edgeStyle=orthogonalEdgeStyle;rounded=0;orthogonalLoop=1;jettySize=auto;html=1;" parent="1" source="GmhpjrC-8yOo2otP6V3l-60" target="GmhpjrC-8yOo2otP6V3l-8" edge="1">
          <mxGeometry relative="1" as="geometry">
            <Array as="points">
              <mxPoint x="570" y="760" />
              <mxPoint x="610" y="760" />
            </Array>
          </mxGeometry>
        </mxCell>
        <mxCell id="GmhpjrC-8yOo2otP6V3l-60" value="Public Issuer" style="rounded=0;whiteSpace=wrap;html=1;" parent="1" vertex="1">
          <mxGeometry x="480" y="670" width="120" height="60" as="geometry" />
        </mxCell>
        <mxCell id="GmhpjrC-8yOo2otP6V3l-62" style="edgeStyle=orthogonalEdgeStyle;rounded=0;orthogonalLoop=1;jettySize=auto;html=1;entryX=0.5;entryY=0;entryDx=0;entryDy=0;" parent="1" source="GmhpjrC-8yOo2otP6V3l-61" target="GmhpjrC-8yOo2otP6V3l-5" edge="1">
          <mxGeometry relative="1" as="geometry">
            <Array as="points">
              <mxPoint x="230" y="760" />
              <mxPoint x="190" y="760" />
            </Array>
          </mxGeometry>
        </mxCell>
        <mxCell id="GmhpjrC-8yOo2otP6V3l-63" style="edgeStyle=orthogonalEdgeStyle;rounded=0;orthogonalLoop=1;jettySize=auto;html=1;entryX=0.5;entryY=0;entryDx=0;entryDy=0;" parent="1" source="GmhpjrC-8yOo2otP6V3l-61" target="GmhpjrC-8yOo2otP6V3l-6" edge="1">
          <mxGeometry relative="1" as="geometry">
            <Array as="points">
              <mxPoint x="290" y="760" />
              <mxPoint x="330" y="760" />
            </Array>
          </mxGeometry>
        </mxCell>
        <mxCell id="GmhpjrC-8yOo2otP6V3l-61" value="Private Issuer" style="rounded=0;whiteSpace=wrap;html=1;" parent="1" vertex="1">
          <mxGeometry x="200" y="670" width="120" height="60" as="geometry" />
        </mxCell>
        <mxCell id="UxKG776Q_cQlhPCToLZQ-3" style="edgeStyle=orthogonalEdgeStyle;rounded=0;orthogonalLoop=1;jettySize=auto;html=1;startArrow=classic;startFill=1;" edge="1" parent="1" source="UxKG776Q_cQlhPCToLZQ-1" target="GmhpjrC-8yOo2otP6V3l-5">
          <mxGeometry relative="1" as="geometry">
            <Array as="points">
              <mxPoint x="230" y="900" />
              <mxPoint x="190" y="900" />
            </Array>
          </mxGeometry>
        </mxCell>
        <mxCell id="UxKG776Q_cQlhPCToLZQ-1" value="Private System" style="rounded=0;whiteSpace=wrap;html=1;" vertex="1" parent="1">
          <mxGeometry x="200" y="920" width="120" height="60" as="geometry" />
        </mxCell>
      </root>
    </mxGraphModel>
  </diagram>
</mxfile>
